<mxfile host="app.diagrams.net" modified="2023-07-10T17:39:11.554Z" agent="Mozilla/5.0 (Macintosh; Intel Mac OS X 10_15_7) AppleWebKit/605.1.15 (KHTML, like Gecko) Version/16.5.1 Safari/605.1.15" etag="RXdNZvIy0G4JVmpq515j" version="21.6.1" type="device">
  <diagram name="Page-1" id="_BRIvtYr9ildnfTEY-n2">
    <mxGraphModel dx="516" dy="296" grid="1" gridSize="10" guides="1" tooltips="1" connect="1" arrows="1" fold="1" page="1" pageScale="1" pageWidth="827" pageHeight="1169" math="0" shadow="0">
      <root>
        <mxCell id="0" />
        <mxCell id="1" parent="0" />
        <mxCell id="eSEq9gx4SsT_ZTvbtzWm-1" value="Hub" style="rounded=0;whiteSpace=wrap;html=1;" vertex="1" parent="1">
          <mxGeometry x="350" y="300" width="120" height="60" as="geometry" />
        </mxCell>
        <mxCell id="eSEq9gx4SsT_ZTvbtzWm-2" value="Dashboard" style="rounded=0;whiteSpace=wrap;html=1;" vertex="1" parent="1">
          <mxGeometry x="140" y="300" width="120" height="60" as="geometry" />
        </mxCell>
        <mxCell id="eSEq9gx4SsT_ZTvbtzWm-4" value="CosmosDb" style="text;html=1;align=center;verticalAlign=middle;resizable=0;points=[];autosize=1;strokeColor=none;fillColor=none;" vertex="1" parent="1">
          <mxGeometry x="540" y="340" width="80" height="30" as="geometry" />
        </mxCell>
        <mxCell id="eSEq9gx4SsT_ZTvbtzWm-5" value="&lt;b&gt;Hub and spoke architecture&lt;/b&gt;" style="text;html=1;align=center;verticalAlign=middle;resizable=0;points=[];autosize=1;strokeColor=none;fillColor=none;" vertex="1" parent="1">
          <mxGeometry x="320" y="230" width="180" height="30" as="geometry" />
        </mxCell>
        <mxCell id="eSEq9gx4SsT_ZTvbtzWm-6" value="MetricsCollector" style="rounded=0;whiteSpace=wrap;html=1;" vertex="1" parent="1">
          <mxGeometry x="240" y="460" width="100" height="40" as="geometry" />
        </mxCell>
        <mxCell id="eSEq9gx4SsT_ZTvbtzWm-7" value="MetricsCollector" style="rounded=0;whiteSpace=wrap;html=1;" vertex="1" parent="1">
          <mxGeometry x="360" y="460" width="100" height="40" as="geometry" />
        </mxCell>
        <mxCell id="eSEq9gx4SsT_ZTvbtzWm-8" value="" style="shape=image;html=1;verticalAlign=top;verticalLabelPosition=bottom;labelBackgroundColor=#ffffff;imageAspect=0;aspect=fixed;image=https://cdn4.iconfinder.com/data/icons/developer-set-3/128/other-128.png" vertex="1" parent="1">
          <mxGeometry x="480" y="442" width="48" height="48" as="geometry" />
        </mxCell>
        <mxCell id="eSEq9gx4SsT_ZTvbtzWm-9" value="" style="endArrow=classic;html=1;rounded=0;" edge="1" parent="1">
          <mxGeometry width="50" height="50" relative="1" as="geometry">
            <mxPoint x="290" y="460" as="sourcePoint" />
            <mxPoint x="360" y="380" as="targetPoint" />
          </mxGeometry>
        </mxCell>
        <mxCell id="eSEq9gx4SsT_ZTvbtzWm-10" value="" style="endArrow=classic;html=1;rounded=0;" edge="1" parent="1">
          <mxGeometry width="50" height="50" relative="1" as="geometry">
            <mxPoint x="410" y="460" as="sourcePoint" />
            <mxPoint x="410" y="380" as="targetPoint" />
          </mxGeometry>
        </mxCell>
        <mxCell id="eSEq9gx4SsT_ZTvbtzWm-11" value="" style="image;sketch=0;aspect=fixed;html=1;points=[];align=center;fontSize=12;image=img/lib/mscae/Docker.svg;" vertex="1" parent="1">
          <mxGeometry x="303.42" y="490" width="36.58" height="30" as="geometry" />
        </mxCell>
        <mxCell id="eSEq9gx4SsT_ZTvbtzWm-12" value="" style="image;sketch=0;aspect=fixed;html=1;points=[];align=center;fontSize=12;image=img/lib/mscae/Docker.svg;" vertex="1" parent="1">
          <mxGeometry x="423.42" y="490" width="36.58" height="30" as="geometry" />
        </mxCell>
        <mxCell id="eSEq9gx4SsT_ZTvbtzWm-13" value="" style="endArrow=classic;startArrow=classic;html=1;rounded=0;" edge="1" parent="1">
          <mxGeometry width="50" height="50" relative="1" as="geometry">
            <mxPoint x="478" y="330" as="sourcePoint" />
            <mxPoint x="550" y="330" as="targetPoint" />
          </mxGeometry>
        </mxCell>
        <mxCell id="eSEq9gx4SsT_ZTvbtzWm-14" value="" style="endArrow=classic;startArrow=classic;html=1;rounded=0;" edge="1" parent="1">
          <mxGeometry width="50" height="50" relative="1" as="geometry">
            <mxPoint x="265" y="330" as="sourcePoint" />
            <mxPoint x="340" y="330" as="targetPoint" />
          </mxGeometry>
        </mxCell>
        <mxCell id="eSEq9gx4SsT_ZTvbtzWm-15" value="" style="image;aspect=fixed;html=1;points=[];align=center;fontSize=12;image=img/lib/azure2/preview/Static_Apps.svg;" vertex="1" parent="1">
          <mxGeometry x="220" y="282" width="30" height="24" as="geometry" />
        </mxCell>
        <mxCell id="eSEq9gx4SsT_ZTvbtzWm-17" value="" style="image;aspect=fixed;html=1;points=[];align=center;fontSize=12;image=img/lib/azure2/app_services/App_Services.svg;" vertex="1" parent="1">
          <mxGeometry x="430" y="279" width="30" height="30" as="geometry" />
        </mxCell>
        <mxCell id="eSEq9gx4SsT_ZTvbtzWm-18" value="" style="image;aspect=fixed;html=1;points=[];align=center;fontSize=12;image=img/lib/azure2/databases/Azure_Cosmos_DB.svg;" vertex="1" parent="1">
          <mxGeometry x="553" y="296" width="54" height="54" as="geometry" />
        </mxCell>
      </root>
    </mxGraphModel>
  </diagram>
</mxfile>
